<svg width="1027" height="953" viewBox="0 0 1027 953" fill="none" xmlns="http://www.w3.org/2000/svg">
<path fill-rule="evenodd" clip-rule="evenodd" d="M93.5665 0.0839844L64.2889 87.3011L0.640381 153.73L93.5665 0.0839844ZM599.659 170.795C540.996 150.916 482.864 131.257 428.063 112.75C334.883 81.2805 251.265 53.1162 190.942 32.8191C160.78 22.6704 136.44 14.4879 119.639 8.84207C111.238 6.01913 104.722 3.83031 100.305 2.34688L93.5737 0.0863953C93.569 0.084816 93.5665 0.0839844 64.2889 87.3011C0.640381 153.73 0.642368 153.732 0.646435 153.736L6.82563 159.658C10.8837 163.546 16.8707 169.284 24.5845 176.678C40.0121 191.466 62.3466 212.877 89.9709 239.368C145.22 292.351 221.626 365.65 306.251 446.919C377.618 515.455 454.804 589.633 530.063 662.058L187.171 555.339L132.491 731.026L845.68 952.993L937.056 799.094C805.31 671.374 602.982 476.773 433.7 314.206C430.835 311.454 427.979 308.712 425.133 305.979C598.87 364.713 794.692 431.198 932.237 478.735L1026.05 325.457L689.237 1.67568L561.72 134.324L599.659 170.795Z" fill="#87EAFF"/>
</svg>
